; NON-PLATED HOLES START AT T1
; THROUGH (PLATED) HOLES START AT T100
M48
INCH
T1C0.125984
T100C0.031555
T101C0.035433
T102C0.031496
T103C0.035000
T104C0.059055
T105C0.038189
T106C0.042000
T107C0.030000
T108C0.043307
T109C0.032000
T110C0.015748
T111C0.040000
T112C0.038000
T113C0.039370
T114C0.031497
%
T1
X000966Y044480
X000966Y000937
X043565Y044480
X043525Y000937
T100
X010415Y037710
X041401Y003693
X028842Y003689
T101
X026715Y030346
X043407Y002787
X043407Y003693
X040337Y016961
X027581Y036527
X001124Y026291
X001045Y003220
X027541Y016961
X039589Y045740
X033526Y044992
X006045Y028772
X000651Y035819
X001085Y004126
X042699Y045725
X002069Y026296
T102
X026911Y003689
X010415Y035779
X039471Y003693
T103
X007029Y034795
X039423Y009960
X007029Y033795
X026589Y005983
X026589Y018983
X029589Y005983
X007029Y031795
X026589Y016983
X004029Y031795
X004029Y033795
X029589Y006983
X042423Y012960
X004029Y032795
X039423Y017960
X007029Y032795
X007029Y037795
X042423Y013960
X039423Y014960
X007029Y030795
X029746Y023496
X026589Y013983
X029589Y018983
X004029Y040795
X042423Y017960
X023880Y040464
X026589Y014983
X004029Y036795
X026589Y007983
X026589Y017983
X042423Y016960
X025061Y044464
X007029Y036795
X026589Y015983
X004029Y030795
X002620Y006031
X029589Y010983
X028840Y040701
X042423Y005960
X004029Y039795
X029589Y012983
X030203Y020268
X001478Y005992
X027463Y044716
X042423Y007960
X039423Y010960
X026589Y010983
X026203Y020268
X017344Y012102
X039423Y006960
X042423Y011960
X027463Y040716
X002620Y010031
X007029Y029795
X007029Y027795
X039423Y012960
X026589Y008983
X042423Y009960
X004029Y035795
X038801Y020268
X039423Y018960
X026518Y040716
X039423Y011960
X007029Y035795
X029825Y040716
X042423Y014960
X004029Y029795
X029589Y017983
X028840Y044701
X007029Y026212
X033746Y023496
X029589Y009983
X039423Y015960
X029589Y007983
X025061Y040464
X026518Y044716
X042423Y008960
X042423Y006960
X026589Y006983
X004029Y027795
X004029Y038795
X029589Y016983
X039423Y013960
X004029Y034795
X038014Y041921
X038053Y044850
X038053Y043850
X039423Y016960
X029825Y044716
X003029Y026212
X007029Y040795
X026589Y009983
X042423Y010960
X038014Y040921
X007029Y028795
X039423Y008960
X004029Y037795
X026589Y011983
X039423Y007960
X042801Y020268
X029589Y008983
X001478Y009992
X007029Y039795
X042423Y018960
X007029Y038795
X042423Y015960
X029707Y024953
X004029Y028795
X017344Y008102
X026589Y012983
X023880Y044464
X029589Y011983
X039423Y005960
X029589Y013983
X029589Y014983
X033707Y024953
X029589Y015983
T104
X042148Y022551
X042148Y026488
X042148Y024520
T105
X026085Y027236
X027085Y027236
X024085Y024236
X022085Y024236
X021085Y024236
X025085Y024236
X027085Y024236
X024085Y027236
X025085Y027236
X022085Y027236
X020085Y027236
X021085Y027236
X026085Y024236
X023085Y027236
X023085Y024236
X020085Y024236
T106
X041321Y044086
X041321Y042086
X041321Y043086
T107
X011417Y039480
X028604Y001234
X027305Y001232
X041163Y001254
X011417Y034008
X010415Y034008
X041163Y002256
X027305Y002234
X010415Y039480
X028604Y002236
X039864Y002254
X039864Y001252
T108
X037318Y011708
X024326Y014708
X037318Y015708
X037318Y019708
X024326Y019708
X037318Y009708
X024326Y011708
X024326Y010708
X037318Y018708
X037318Y012708
X024326Y012708
X024326Y018708
X024326Y016708
X024326Y013708
X037318Y014708
X037318Y016708
X037318Y020708
X024326Y015708
X024326Y020708
X037318Y010708
X037318Y013708
X037318Y017708
X024326Y009708
X024326Y017708
T109
X014195Y003803
X014195Y006803
X017195Y003803
X017195Y004803
X014195Y005803
X017195Y006803
X014195Y004803
X017195Y005803
T110
X015954Y003760
X028132Y024244
X027463Y021606
X017581Y040149
X029785Y025897
X011320Y027227
X043998Y029677
X017856Y002197
X016163Y033023
X000494Y027748
X039549Y021960
X029943Y021960
X021006Y035897
X015120Y006816
X043998Y011960
X020022Y033023
X011365Y030893
X033722Y022669
X043486Y027551
X034628Y018693
X015148Y004788
X016596Y040701
X000966Y033850
X030100Y045937
X037974Y036331
X026596Y026252
X012148Y034953
X043447Y012945
X041754Y031567
X017541Y035937
X043998Y020307
X008683Y034913
X043998Y028220
X021557Y044480
X018722Y026134
T111
X012250Y029220
X008250Y027220
X031518Y011708
X018526Y001708
X024326Y003708
X033526Y042079
X031518Y013708
X031518Y003708
X024326Y004708
X018526Y002708
X037318Y002708
X031518Y001708
X031518Y002708
X018526Y016708
X033526Y043457
X018526Y010708
X031518Y016708
X012250Y030220
X018526Y012708
X024326Y006708
X037318Y008708
X024326Y007708
X008250Y026220
X018526Y006708
X012250Y025220
X031518Y005708
X031518Y017708
X018526Y004708
X018526Y003708
X018526Y007708
X018526Y020708
X008250Y030220
X012250Y028220
X031518Y008708
X037318Y001708
X024326Y005708
X031518Y006708
X018526Y009708
X031518Y009708
X018526Y005708
X031518Y007708
X037318Y006708
X024326Y008708
X031518Y010708
X031518Y018708
X008250Y025220
X037318Y005708
X037318Y007708
X024326Y002708
X031518Y004708
X018526Y015708
X024326Y001708
X031518Y014708
X018526Y014708
X012250Y026220
X018526Y013708
X031518Y012708
X018526Y008708
X031518Y019708
X031518Y020708
X008250Y029220
X037318Y004708
X037318Y003708
X031518Y015708
X012250Y027220
X008250Y028220
X018526Y011708
X018526Y019708
X018526Y018708
X018526Y017708
T112
X021077Y028890
X024407Y036527
X018077Y028890
X043329Y036567
X023077Y038890
X025407Y036527
X029077Y038890
X014612Y027079
X029140Y027630
X030140Y027630
X028077Y028890
X023407Y036527
X017077Y028890
X020077Y038890
X015612Y027079
X016077Y038890
X043329Y031543
X015612Y025504
X043329Y030543
X019077Y028890
X028077Y038890
X016077Y028890
X004596Y045701
X034510Y034023
X019352Y030149
X038014Y028764
X025077Y028890
X003596Y045701
X019077Y038890
X024077Y038890
X005596Y045701
X015077Y028890
X034510Y035023
X027077Y028890
X018077Y038890
X001596Y045701
X039014Y028764
X034510Y033023
X006596Y045701
X039014Y039433
X043329Y037567
X025077Y038890
X020077Y028890
X023077Y028890
X015077Y038890
X017085Y030740
X029077Y028890
X027077Y038890
X022077Y028890
X021077Y038890
X038014Y039433
X014612Y025504
X017077Y038890
X026077Y028890
X018352Y030149
X022077Y038890
X016085Y030740
X026077Y038890
X024077Y028890
X002596Y045701
T113
X035746Y025771
X034746Y023771
X038699Y025771
X037699Y023771
X039699Y023771
X036746Y023771
T114
X012344Y009677
X005455Y011173
X005455Y012157
X012344Y008693
T00
M30
